<svg width="273" height="307" viewBox="0 0 273 307" fill="none" xmlns="http://www.w3.org/2000/svg">
<circle cx="138" cy="154" r="125" fill="#171F25" stroke="#32424F" stroke-width="6"/>
<g filter="url(#filter0_d_347_814)">
<mask id="path-2-inside-1_347_814" fill="white">
<path d="M30.672 248V88.256H4.56V59.84H84.432V88.256H58.32V248H30.672ZM94.68 248V59.84H122.328V137.664H143.832V59.84H171.48V248H143.832V166.08H122.328V248H94.68ZM220.602 250.048C213.007 250.048 206.821 248.256 202.042 244.672C197.263 241.088 193.722 236.224 191.418 230.08C189.199 223.936 188.09 217.024 188.09 209.344V98.496C188.09 90.9013 189.583 84.032 192.57 77.888C195.557 71.744 199.823 66.88 205.37 63.296C210.917 59.6267 217.445 57.792 224.954 57.792C230.671 57.792 235.791 58.8587 240.314 60.992C244.922 63.04 248.805 65.9413 251.962 69.696C255.205 73.4507 257.637 77.8027 259.258 82.752C260.965 87.616 261.818 92.864 261.818 98.496V127.424H234.17V98.496C234.17 94.7413 233.487 91.4987 232.122 88.768C230.757 86.0373 228.367 84.672 224.954 84.672C221.626 84.672 219.237 86.1227 217.786 89.024C216.421 91.84 215.738 94.9973 215.738 98.496V211.648C215.738 215.317 216.463 218.56 217.914 221.376C219.365 224.107 221.711 225.472 224.954 225.472C228.367 225.472 230.757 224.107 232.122 221.376C233.487 218.56 234.17 215.317 234.17 211.648V180.16H223.162V154.304H261.818V248H245.434L242.106 237.76C239.717 241.6 236.645 244.629 232.89 246.848C229.221 248.981 225.125 250.048 220.602 250.048Z"/>
</mask>
<path d="M30.672 248V88.256H4.56V59.84H84.432V88.256H58.32V248H30.672ZM94.68 248V59.84H122.328V137.664H143.832V59.84H171.48V248H143.832V166.08H122.328V248H94.68ZM220.602 250.048C213.007 250.048 206.821 248.256 202.042 244.672C197.263 241.088 193.722 236.224 191.418 230.08C189.199 223.936 188.09 217.024 188.09 209.344V98.496C188.09 90.9013 189.583 84.032 192.57 77.888C195.557 71.744 199.823 66.88 205.37 63.296C210.917 59.6267 217.445 57.792 224.954 57.792C230.671 57.792 235.791 58.8587 240.314 60.992C244.922 63.04 248.805 65.9413 251.962 69.696C255.205 73.4507 257.637 77.8027 259.258 82.752C260.965 87.616 261.818 92.864 261.818 98.496V127.424H234.17V98.496C234.17 94.7413 233.487 91.4987 232.122 88.768C230.757 86.0373 228.367 84.672 224.954 84.672C221.626 84.672 219.237 86.1227 217.786 89.024C216.421 91.84 215.738 94.9973 215.738 98.496V211.648C215.738 215.317 216.463 218.56 217.914 221.376C219.365 224.107 221.711 225.472 224.954 225.472C228.367 225.472 230.757 224.107 232.122 221.376C233.487 218.56 234.17 215.317 234.17 211.648V180.16H223.162V154.304H261.818V248H245.434L242.106 237.76C239.717 241.6 236.645 244.629 232.89 246.848C229.221 248.981 225.125 250.048 220.602 250.048Z" fill="#EBEDEE"/>
<path d="M30.672 248H28.672V250H30.672V248ZM30.672 88.256H32.672V86.256H30.672V88.256ZM4.56 88.256H2.56V90.256H4.56V88.256ZM4.56 59.84V57.84H2.56V59.84H4.56ZM84.432 59.84H86.432V57.84H84.432V59.84ZM84.432 88.256V90.256H86.432V88.256H84.432ZM58.32 88.256V86.256H56.32V88.256H58.32ZM58.32 248V250H60.32V248H58.32ZM32.672 248V88.256H28.672V248H32.672ZM30.672 86.256H4.56V90.256H30.672V86.256ZM6.56 88.256V59.84H2.56L2.56 88.256H6.56ZM4.56 61.84H84.432V57.84H4.56V61.84ZM82.432 59.84V88.256H86.432V59.84H82.432ZM84.432 86.256H58.32V90.256H84.432V86.256ZM56.32 88.256V248H60.32V88.256H56.32ZM58.32 246H30.672V250H58.32V246ZM94.68 248H92.68V250H94.68V248ZM94.68 59.84V57.84H92.68V59.84H94.68ZM122.328 59.84H124.328V57.84H122.328V59.84ZM122.328 137.664H120.328V139.664H122.328V137.664ZM143.832 137.664V139.664H145.832V137.664H143.832ZM143.832 59.84V57.84H141.832V59.84H143.832ZM171.48 59.84H173.48V57.84H171.48V59.84ZM171.48 248V250H173.48V248H171.48ZM143.832 248H141.832V250H143.832V248ZM143.832 166.08H145.832V164.08H143.832V166.08ZM122.328 166.08V164.08H120.328V166.08H122.328ZM122.328 248V250H124.328V248H122.328ZM96.68 248V59.84H92.68V248H96.68ZM94.68 61.84H122.328V57.84H94.68V61.84ZM120.328 59.84V137.664H124.328V59.84H120.328ZM122.328 139.664H143.832V135.664H122.328V139.664ZM145.832 137.664V59.84H141.832V137.664H145.832ZM143.832 61.84H171.48V57.84H143.832V61.84ZM169.48 59.84V248H173.48V59.84H169.48ZM171.48 246H143.832V250H171.48V246ZM145.832 248V166.08H141.832V248H145.832ZM143.832 164.08H122.328V168.08H143.832V164.08ZM120.328 166.08V248H124.328V166.08H120.328ZM122.328 246H94.68V250H122.328V246ZM202.042 244.672L200.842 246.272L200.842 246.272L202.042 244.672ZM191.418 230.08L189.537 230.759L189.541 230.771L189.545 230.782L191.418 230.08ZM192.57 77.888L190.771 77.0136L190.771 77.0136L192.57 77.888ZM205.37 63.296L206.455 64.9758L206.464 64.97L206.473 64.964L205.37 63.296ZM240.314 60.992L239.461 62.8009L239.481 62.8105L239.502 62.8196L240.314 60.992ZM251.962 69.696L250.431 70.9832L250.44 70.9933L250.448 71.0032L251.962 69.696ZM259.258 82.752L257.357 83.3746L257.364 83.3945L257.371 83.4142L259.258 82.752ZM261.818 127.424V129.424H263.818V127.424H261.818ZM234.17 127.424H232.17V129.424H234.17V127.424ZM232.122 88.768L233.911 87.8736L233.911 87.8736L232.122 88.768ZM217.786 89.024L215.997 88.1296L215.992 88.1405L215.986 88.1514L217.786 89.024ZM217.914 221.376L216.136 222.292L216.142 222.303L216.148 222.314L217.914 221.376ZM232.122 221.376L233.911 222.27L233.916 222.26L233.922 222.249L232.122 221.376ZM234.17 180.16H236.17V178.16H234.17V180.16ZM223.162 180.16H221.162V182.16H223.162V180.16ZM223.162 154.304V152.304H221.162V154.304H223.162ZM261.818 154.304H263.818V152.304H261.818V154.304ZM261.818 248V250H263.818V248H261.818ZM245.434 248L243.532 248.618L243.981 250H245.434V248ZM242.106 237.76L244.008 237.142L242.679 233.053L240.408 236.703L242.106 237.76ZM232.89 246.848L233.895 248.577L233.901 248.573L233.907 248.57L232.89 246.848ZM220.602 248.048C213.322 248.048 207.59 246.333 203.242 243.072L200.842 246.272C206.051 250.179 212.693 252.048 220.602 252.048V248.048ZM203.242 243.072C198.798 239.739 195.474 235.201 193.291 229.378L189.545 230.782C191.97 237.247 195.728 242.437 200.842 246.272L203.242 243.072ZM193.299 229.401C191.172 223.509 190.09 216.832 190.09 209.344H186.09C186.09 217.216 187.227 224.363 189.537 230.759L193.299 229.401ZM190.09 209.344V98.496H186.09V209.344H190.09ZM190.09 98.496C190.09 91.1701 191.529 84.6047 194.369 78.7624L190.771 77.0136C187.638 83.4592 186.09 90.6326 186.09 98.496H190.09ZM194.369 78.7624C197.201 72.9351 201.227 68.3545 206.455 64.9758L204.285 61.6162C198.42 65.4055 193.912 70.5529 190.771 77.0136L194.369 78.7624ZM206.473 64.964C211.652 61.5384 217.785 59.792 224.954 59.792V55.792C217.105 55.792 210.182 57.7149 204.267 61.628L206.473 64.964ZM224.954 59.792C230.419 59.792 235.241 60.8103 239.461 62.8009L241.167 59.1831C236.342 56.907 230.924 55.792 224.954 55.792V59.792ZM239.502 62.8196C243.84 64.7479 247.475 67.4675 250.431 70.9832L253.493 68.4088C250.134 64.4152 246.004 61.3321 241.126 59.1644L239.502 62.8196ZM250.448 71.0032C253.509 74.5476 255.814 78.6641 257.357 83.3746L261.159 82.1294C259.459 76.9412 256.9 72.3537 253.476 68.3888L250.448 71.0032ZM257.371 83.4142C258.996 88.0466 259.818 93.0687 259.818 98.496H263.818C263.818 92.6593 262.933 87.1854 261.145 82.0898L257.371 83.4142ZM259.818 98.496V127.424H263.818V98.496H259.818ZM261.818 125.424H234.17V129.424H261.818V125.424ZM236.17 127.424V98.496H232.17V127.424H236.17ZM236.17 98.496C236.17 94.5009 235.443 90.9385 233.911 87.8736L230.333 89.6624C231.531 92.0588 232.17 94.9817 232.17 98.496H236.17ZM233.911 87.8736C233.072 86.1952 231.873 84.8592 230.298 83.9595C228.737 83.0673 226.926 82.672 224.954 82.672V86.672C226.395 86.672 227.486 86.9594 228.314 87.4325C229.129 87.8981 229.807 88.6101 230.333 89.6624L233.911 87.8736ZM224.954 82.672C222.994 82.672 221.191 83.1017 219.628 84.0504C218.062 85.001 216.863 86.397 215.997 88.1296L219.575 89.9184C220.159 88.7497 220.88 87.9697 221.704 87.4696C222.531 86.9677 223.586 86.672 224.954 86.672V82.672ZM215.986 88.1514C214.474 91.27 213.738 94.731 213.738 98.496H217.738C217.738 95.2636 218.367 92.41 219.586 89.8965L215.986 88.1514ZM213.738 98.496V211.648H217.738V98.496H213.738ZM213.738 211.648C213.738 215.585 214.518 219.151 216.136 222.292L219.692 220.46C218.409 217.969 217.738 215.049 217.738 211.648H213.738ZM216.148 222.314C217.023 223.962 218.218 225.282 219.756 226.177C221.289 227.069 223.048 227.472 224.954 227.472V223.472C223.617 223.472 222.581 223.193 221.768 222.719C220.96 222.249 220.256 221.521 219.68 220.438L216.148 222.314ZM224.954 227.472C226.926 227.472 228.737 227.077 230.298 226.184C231.873 225.285 233.072 223.949 233.911 222.27L230.333 220.482C229.807 221.534 229.129 222.246 228.314 222.712C227.486 223.185 226.395 223.472 224.954 223.472V227.472ZM233.922 222.249C235.44 219.117 236.17 215.568 236.17 211.648H232.17C232.17 215.067 231.535 218.003 230.322 220.503L233.922 222.249ZM236.17 211.648V180.16H232.17V211.648H236.17ZM234.17 178.16H223.162V182.16H234.17V178.16ZM225.162 180.16V154.304H221.162V180.16H225.162ZM223.162 156.304H261.818V152.304H223.162V156.304ZM259.818 154.304V248H263.818V154.304H259.818ZM261.818 246H245.434V250H261.818V246ZM247.336 247.382L244.008 237.142L240.204 238.378L243.532 248.618L247.336 247.382ZM240.408 236.703C238.182 240.281 235.34 243.077 231.873 245.126L233.907 248.57C237.95 246.181 241.251 242.919 243.804 238.817L240.408 236.703ZM231.885 245.119C228.541 247.063 224.796 248.048 220.602 248.048V252.048C225.454 252.048 229.901 250.9 233.895 248.577L231.885 245.119Z" fill="#32424F" mask="url(#path-2-inside-1_347_814)"/>
</g>
<defs>
<filter id="filter0_d_347_814" x="0.560059" y="57.792" width="265.258" height="200.256" filterUnits="userSpaceOnUse" color-interpolation-filters="sRGB">
<feFlood flood-opacity="0" result="BackgroundImageFix"/>
<feColorMatrix in="SourceAlpha" type="matrix" values="0 0 0 0 0 0 0 0 0 0 0 0 0 0 0 0 0 0 127 0" result="hardAlpha"/>
<feOffset dy="4"/>
<feGaussianBlur stdDeviation="2"/>
<feComposite in2="hardAlpha" operator="out"/>
<feColorMatrix type="matrix" values="0 0 0 0 0 0 0 0 0 0 0 0 0 0 0 0 0 0 0.25 0"/>
<feBlend mode="normal" in2="BackgroundImageFix" result="effect1_dropShadow_347_814"/>
<feBlend mode="normal" in="SourceGraphic" in2="effect1_dropShadow_347_814" result="shape"/>
</filter>
</defs>
</svg>
